<svg width="150" height="150" viewBox="0 0 150 150" xmlns="http://www.w3.org/2000/svg">
  <!-- Background circle -->
  <circle cx="75" cy="75" r="70" fill="#1D6F7A"/>
  
  <!-- Pulse wave pattern -->
  <path d="M 20 75 L 35 75 L 45 45 L 55 105 L 65 55 L 75 85 L 85 65 L 95 95 L 105 65 L 115 75 L 130 75" 
        stroke="#FFFFFF" 
        stroke-width="4" 
        fill="none" 
        stroke-linecap="round" 
        stroke-linejoin="round"/>
  
  <!-- Heart rate icon overlay -->
  <circle cx="75" cy="75" r="15" fill="#2AA5B3" opacity="0.3"/>
  <path d="M 75 85 L 70 80 C 65 75 65 68 70 63 C 72 61 74 60 75 60 C 76 60 78 61 80 63 C 85 68 85 75 80 80 Z" 
        fill="#FFFFFF"/>
  
  <!-- Trading chart accent -->
  <g opacity="0.5">
    <line x1="40" y1="100" x2="45" y2="95" stroke="#2AA5B3" stroke-width="2"/>
    <line x1="45" y1="95" x2="50" y2="98" stroke="#2AA5B3" stroke-width="2"/>
    <line x1="50" y1="98" x2="55" y2="92" stroke="#2AA5B3" stroke-width="2"/>
  </g>
  
  <!-- Text -->
  <text x="75" y="140" text-anchor="middle" font-family="Arial, sans-serif" font-size="18" font-weight="bold" fill="#FFFFFF">PulseTrade</text>
</svg>



